<svg xmlns="http://www.w3.org/2000/svg" version="1.1" xmlns:xlink="http://www.w3.org/1999/xlink" xmlns:svgjs="http://svgjs.com/svgjs" width="1440" height="560" preserveAspectRatio="none" viewBox="0 0 1440 560"><g mask="url(&quot;#SvgjsMask1006&quot;)" fill="none"><rect width="1440" height="560" x="0" y="0" fill="rgba(52, 16, 87, 1)"></rect><path d="M-39.78 379.86L-39.78 379.86" stroke="rgba(57, 18, 106, 1)" stroke-width="1.5"></path><path d="M-39.78 379.86L72.44 340.15" stroke="rgba(57, 18, 106, 1)" stroke-width="1.5"></path><path d="M-39.78 379.86L-46.37 549.53" stroke="rgba(57, 18, 106, 1)" stroke-width="1.5"></path><path d="M-46.37 549.53L-46.37 549.53" stroke="rgba(57, 18, 106, 1)" stroke-width="1.5"></path><path d="M-46.37 549.53L64.19 554.25" stroke="rgba(57, 18, 106, 1)" stroke-width="1.5"></path><path d="M-46.37 549.53L-64.5 678.45" stroke="rgba(57, 18, 106, 1)" stroke-width="1.5"></path><path d="M-46.37 549.53L93.89 697.63" stroke="rgba(57, 18, 106, 1)" stroke-width="1.5"></path><path d="M-64.5 678.45L-64.5 678.45" stroke="rgba(57, 18, 106, 1)" stroke-width="1.5"></path><path d="M-64.5 678.45L93.89 697.63" stroke="rgba(57, 18, 106, 1)" stroke-width="1.5"></path><path d="M-64.5 678.45L64.19 554.25" stroke="rgba(57, 18, 106, 1)" stroke-width="1.5"></path><path d="M72.44 340.15L72.44 340.15" stroke="rgba(57, 18, 106, 1)" stroke-width="1.5"></path><path d="M72.44 340.15L248.9 378.79" stroke="rgba(57, 18, 106, 1)" stroke-width="1.5"></path><path d="M72.44 340.15L64.19 554.25" stroke="rgba(57, 18, 106, 1)" stroke-width="1.5"></path><path d="M72.44 340.15L-46.37 549.53" stroke="rgba(57, 18, 106, 1)" stroke-width="1.5"></path><path d="M64.19 554.25L64.19 554.25" stroke="rgba(57, 18, 106, 1)" stroke-width="1.5"></path><path d="M64.19 554.25L93.89 697.63" stroke="rgba(57, 18, 106, 1)" stroke-width="1.5"></path><path d="M64.19 554.25L194.55 683.72" stroke="rgba(57, 18, 106, 1)" stroke-width="1.5"></path><path d="M93.89 697.63L93.89 697.63" stroke="rgba(57, 18, 106, 1)" stroke-width="1.5"></path><path d="M93.89 697.63L194.55 683.72" stroke="rgba(57, 18, 106, 1)" stroke-width="1.5"></path><path d="M248.9 378.79L248.9 378.79" stroke="rgba(57, 18, 106, 1)" stroke-width="1.5"></path><path d="M248.9 378.79L399.26 377.2" stroke="rgba(57, 18, 106, 1)" stroke-width="1.5"></path><path d="M248.9 378.79L255.94 546.09" stroke="rgba(57, 18, 106, 1)" stroke-width="1.5"></path><path d="M255.94 546.09L255.94 546.09" stroke="rgba(57, 18, 106, 1)" stroke-width="1.5"></path><path d="M255.94 546.09L194.55 683.72" stroke="rgba(57, 18, 106, 1)" stroke-width="1.5"></path><path d="M255.94 546.09L338.59 685.38" stroke="rgba(57, 18, 106, 1)" stroke-width="1.5"></path><path d="M255.94 546.09L64.19 554.25" stroke="rgba(57, 18, 106, 1)" stroke-width="1.5"></path><path d="M255.94 546.09L399.26 377.2" stroke="rgba(57, 18, 106, 1)" stroke-width="1.5"></path><path d="M255.94 546.09L93.89 697.63" stroke="rgba(57, 18, 106, 1)" stroke-width="1.5"></path><path d="M194.55 683.72L194.55 683.72" stroke="rgba(57, 18, 106, 1)" stroke-width="1.5"></path><path d="M399.26 377.2L399.26 377.2" stroke="rgba(57, 18, 106, 1)" stroke-width="1.5"></path><path d="M399.26 377.2L491.61 392.36" stroke="rgba(57, 18, 106, 1)" stroke-width="1.5"></path><path d="M399.26 377.2L521.45 557.51" stroke="rgba(57, 18, 106, 1)" stroke-width="1.5"></path><path d="M338.59 685.38L338.59 685.38" stroke="rgba(57, 18, 106, 1)" stroke-width="1.5"></path><path d="M338.59 685.38L194.55 683.72" stroke="rgba(57, 18, 106, 1)" stroke-width="1.5"></path><path d="M491.61 392.36L491.61 392.36" stroke="rgba(57, 18, 106, 1)" stroke-width="1.5"></path><path d="M491.61 392.36L647.51 390.61" stroke="rgba(57, 18, 106, 1)" stroke-width="1.5"></path><path d="M521.45 557.51L521.45 557.51" stroke="rgba(57, 18, 106, 1)" stroke-width="1.5"></path><path d="M521.45 557.51L537.65 675.06" stroke="rgba(57, 18, 106, 1)" stroke-width="1.5"></path><path d="M537.65 675.06L537.65 675.06" stroke="rgba(57, 18, 106, 1)" stroke-width="1.5"></path><path d="M537.65 675.06L639.37 662.54" stroke="rgba(57, 18, 106, 1)" stroke-width="1.5"></path><path d="M537.65 675.06L338.59 685.38" stroke="rgba(57, 18, 106, 1)" stroke-width="1.5"></path><path d="M537.65 675.06L689.47 542.25" stroke="rgba(57, 18, 106, 1)" stroke-width="1.5"></path><path d="M537.65 675.06L491.61 392.36" stroke="rgba(57, 18, 106, 1)" stroke-width="1.5"></path><path d="M700.69 208.23L700.69 208.23" stroke="rgba(57, 18, 106, 1)" stroke-width="1.5"></path><path d="M700.69 208.23L789.6 214.94" stroke="rgba(57, 18, 106, 1)" stroke-width="1.5"></path><path d="M700.69 208.23L831.45 344.16" stroke="rgba(57, 18, 106, 1)" stroke-width="1.5"></path><path d="M647.51 390.61L647.51 390.61" stroke="rgba(57, 18, 106, 1)" stroke-width="1.5"></path><path d="M647.51 390.61L689.47 542.25" stroke="rgba(57, 18, 106, 1)" stroke-width="1.5"></path><path d="M647.51 390.61L831.45 344.16" stroke="rgba(57, 18, 106, 1)" stroke-width="1.5"></path><path d="M689.47 542.25L689.47 542.25" stroke="rgba(57, 18, 106, 1)" stroke-width="1.5"></path><path d="M689.47 542.25L639.37 662.54" stroke="rgba(57, 18, 106, 1)" stroke-width="1.5"></path><path d="M689.47 542.25L823.29 501.52" stroke="rgba(57, 18, 106, 1)" stroke-width="1.5"></path><path d="M689.47 542.25L521.45 557.51" stroke="rgba(57, 18, 106, 1)" stroke-width="1.5"></path><path d="M639.37 662.54L639.37 662.54" stroke="rgba(57, 18, 106, 1)" stroke-width="1.5"></path><path d="M789.6 214.94L789.6 214.94" stroke="rgba(57, 18, 106, 1)" stroke-width="1.5"></path><path d="M789.6 214.94L831.45 344.16" stroke="rgba(57, 18, 106, 1)" stroke-width="1.5"></path><path d="M789.6 214.94L940.15 246.01" stroke="rgba(57, 18, 106, 1)" stroke-width="1.5"></path><path d="M831.45 344.16L831.45 344.16" stroke="rgba(57, 18, 106, 1)" stroke-width="1.5"></path><path d="M831.45 344.16L974 353.32" stroke="rgba(57, 18, 106, 1)" stroke-width="1.5"></path><path d="M831.45 344.16L940.15 246.01" stroke="rgba(57, 18, 106, 1)" stroke-width="1.5"></path><path d="M823.29 501.52L823.29 501.52" stroke="rgba(57, 18, 106, 1)" stroke-width="1.5"></path><path d="M823.29 501.52L831.45 344.16" stroke="rgba(57, 18, 106, 1)" stroke-width="1.5"></path><path d="M972.37 -78.97L972.37 -78.97" stroke="rgba(57, 18, 106, 1)" stroke-width="1.5"></path><path d="M972.37 -78.97L1005.33 95.38" stroke="rgba(57, 18, 106, 1)" stroke-width="1.5"></path><path d="M972.37 -78.97L1140.14 97.32" stroke="rgba(57, 18, 106, 1)" stroke-width="1.5"></path><path d="M972.37 -78.97L1251.94 -41.64" stroke="rgba(57, 18, 106, 1)" stroke-width="1.5"></path><path d="M1005.33 95.38L1005.33 95.38" stroke="rgba(57, 18, 106, 1)" stroke-width="1.5"></path><path d="M1005.33 95.38L1140.14 97.32" stroke="rgba(57, 18, 106, 1)" stroke-width="1.5"></path><path d="M1005.33 95.38L940.15 246.01" stroke="rgba(57, 18, 106, 1)" stroke-width="1.5"></path><path d="M1005.33 95.38L1128.16 237.27" stroke="rgba(57, 18, 106, 1)" stroke-width="1.5"></path><path d="M940.15 246.01L940.15 246.01" stroke="rgba(57, 18, 106, 1)" stroke-width="1.5"></path><path d="M940.15 246.01L974 353.32" stroke="rgba(57, 18, 106, 1)" stroke-width="1.5"></path><path d="M940.15 246.01L1128.16 237.27" stroke="rgba(57, 18, 106, 1)" stroke-width="1.5"></path><path d="M940.15 246.01L1109.3 402.99" stroke="rgba(57, 18, 106, 1)" stroke-width="1.5"></path><path d="M974 353.32L974 353.32" stroke="rgba(57, 18, 106, 1)" stroke-width="1.5"></path><path d="M974 353.32L987.53 489.16" stroke="rgba(57, 18, 106, 1)" stroke-width="1.5"></path><path d="M987.53 489.16L987.53 489.16" stroke="rgba(57, 18, 106, 1)" stroke-width="1.5"></path><path d="M987.53 489.16L1109.3 402.99" stroke="rgba(57, 18, 106, 1)" stroke-width="1.5"></path><path d="M987.53 489.16L1139.02 527.49" stroke="rgba(57, 18, 106, 1)" stroke-width="1.5"></path><path d="M987.53 489.16L960.34 644.81" stroke="rgba(57, 18, 106, 1)" stroke-width="1.5"></path><path d="M987.53 489.16L823.29 501.52" stroke="rgba(57, 18, 106, 1)" stroke-width="1.5"></path><path d="M960.34 644.81L960.34 644.81" stroke="rgba(57, 18, 106, 1)" stroke-width="1.5"></path><path d="M960.34 644.81L1090.59 665.11" stroke="rgba(57, 18, 106, 1)" stroke-width="1.5"></path><path d="M1140.14 97.32L1140.14 97.32" stroke="rgba(57, 18, 106, 1)" stroke-width="1.5"></path><path d="M1140.14 97.32L1128.16 237.27" stroke="rgba(57, 18, 106, 1)" stroke-width="1.5"></path><path d="M1140.14 97.32L1294.15 41.54" stroke="rgba(57, 18, 106, 1)" stroke-width="1.5"></path><path d="M1128.16 237.27L1128.16 237.27" stroke="rgba(57, 18, 106, 1)" stroke-width="1.5"></path><path d="M1128.16 237.27L1109.3 402.99" stroke="rgba(57, 18, 106, 1)" stroke-width="1.5"></path><path d="M1128.16 237.27L1310.14 205.04" stroke="rgba(57, 18, 106, 1)" stroke-width="1.5"></path><path d="M1109.3 402.99L1109.3 402.99" stroke="rgba(57, 18, 106, 1)" stroke-width="1.5"></path><path d="M1109.3 402.99L1139.02 527.49" stroke="rgba(57, 18, 106, 1)" stroke-width="1.5"></path><path d="M1109.3 402.99L1244.88 390.77" stroke="rgba(57, 18, 106, 1)" stroke-width="1.5"></path><path d="M1109.3 402.99L974 353.32" stroke="rgba(57, 18, 106, 1)" stroke-width="1.5"></path><path d="M1139.02 527.49L1139.02 527.49" stroke="rgba(57, 18, 106, 1)" stroke-width="1.5"></path><path d="M1139.02 527.49L1090.59 665.11" stroke="rgba(57, 18, 106, 1)" stroke-width="1.5"></path><path d="M1139.02 527.49L1244.88 390.77" stroke="rgba(57, 18, 106, 1)" stroke-width="1.5"></path><path d="M1090.59 665.11L1090.59 665.11" stroke="rgba(57, 18, 106, 1)" stroke-width="1.5"></path><path d="M1251.94 -41.64L1251.94 -41.64" stroke="rgba(57, 18, 106, 1)" stroke-width="1.5"></path><path d="M1251.94 -41.64L1294.15 41.54" stroke="rgba(57, 18, 106, 1)" stroke-width="1.5"></path><path d="M1251.94 -41.64L1140.14 97.32" stroke="rgba(57, 18, 106, 1)" stroke-width="1.5"></path><path d="M1251.94 -41.64L1438.8 -102.53" stroke="rgba(57, 18, 106, 1)" stroke-width="1.5"></path><path d="M1251.94 -41.64L1433.03 70.61" stroke="rgba(57, 18, 106, 1)" stroke-width="1.5"></path><path d="M1251.94 -41.64L1310.14 205.04" stroke="rgba(57, 18, 106, 1)" stroke-width="1.5"></path><path d="M1294.15 41.54L1294.15 41.54" stroke="rgba(57, 18, 106, 1)" stroke-width="1.5"></path><path d="M1294.15 41.54L1433.03 70.61" stroke="rgba(57, 18, 106, 1)" stroke-width="1.5"></path><path d="M1294.15 41.54L1310.14 205.04" stroke="rgba(57, 18, 106, 1)" stroke-width="1.5"></path><path d="M1310.14 205.04L1310.14 205.04" stroke="rgba(57, 18, 106, 1)" stroke-width="1.5"></path><path d="M1310.14 205.04L1392.46 206.38" stroke="rgba(57, 18, 106, 1)" stroke-width="1.5"></path><path d="M1310.14 205.04L1433.03 70.61" stroke="rgba(57, 18, 106, 1)" stroke-width="1.5"></path><path d="M1244.88 390.77L1244.88 390.77" stroke="rgba(57, 18, 106, 1)" stroke-width="1.5"></path><path d="M1244.88 390.77L1128.16 237.27" stroke="rgba(57, 18, 106, 1)" stroke-width="1.5"></path><path d="M1244.88 390.77L1404.41 501.04" stroke="rgba(57, 18, 106, 1)" stroke-width="1.5"></path><path d="M1244.88 390.77L1310.14 205.04" stroke="rgba(57, 18, 106, 1)" stroke-width="1.5"></path><path d="M1282.35 705.26L1282.35 705.26" stroke="rgba(57, 18, 106, 1)" stroke-width="1.5"></path><path d="M1282.35 705.26L1456.75 644.41" stroke="rgba(57, 18, 106, 1)" stroke-width="1.5"></path><path d="M1282.35 705.26L1090.59 665.11" stroke="rgba(57, 18, 106, 1)" stroke-width="1.5"></path><path d="M1282.35 705.26L1139.02 527.49" stroke="rgba(57, 18, 106, 1)" stroke-width="1.5"></path><path d="M1282.35 705.26L1404.41 501.04" stroke="rgba(57, 18, 106, 1)" stroke-width="1.5"></path><path d="M1282.35 705.26L1244.88 390.77" stroke="rgba(57, 18, 106, 1)" stroke-width="1.5"></path><path d="M1438.8 -102.53L1438.8 -102.53" stroke="rgba(57, 18, 106, 1)" stroke-width="1.5"></path><path d="M1438.8 -102.53L1555.92 -39.66" stroke="rgba(57, 18, 106, 1)" stroke-width="1.5"></path><path d="M1438.8 -102.53L1433.03 70.61" stroke="rgba(57, 18, 106, 1)" stroke-width="1.5"></path><path d="M1438.8 -102.53L1294.15 41.54" stroke="rgba(57, 18, 106, 1)" stroke-width="1.5"></path><path d="M1433.03 70.61L1433.03 70.61" stroke="rgba(57, 18, 106, 1)" stroke-width="1.5"></path><path d="M1433.03 70.61L1392.46 206.38" stroke="rgba(57, 18, 106, 1)" stroke-width="1.5"></path><path d="M1433.03 70.61L1555.92 -39.66" stroke="rgba(57, 18, 106, 1)" stroke-width="1.5"></path><path d="M1392.46 206.38L1392.46 206.38" stroke="rgba(57, 18, 106, 1)" stroke-width="1.5"></path><path d="M1392.46 206.38L1294.15 41.54" stroke="rgba(57, 18, 106, 1)" stroke-width="1.5"></path><path d="M1404.41 501.04L1404.41 501.04" stroke="rgba(57, 18, 106, 1)" stroke-width="1.5"></path><path d="M1404.41 501.04L1456.75 644.41" stroke="rgba(57, 18, 106, 1)" stroke-width="1.5"></path><path d="M1404.41 501.04L1607.07 399.02" stroke="rgba(57, 18, 106, 1)" stroke-width="1.5"></path><path d="M1404.41 501.04L1139.02 527.49" stroke="rgba(57, 18, 106, 1)" stroke-width="1.5"></path><path d="M1456.75 644.41L1456.75 644.41" stroke="rgba(57, 18, 106, 1)" stroke-width="1.5"></path><path d="M1456.75 644.41L1607.07 399.02" stroke="rgba(57, 18, 106, 1)" stroke-width="1.5"></path><path d="M1456.75 644.41L1244.88 390.77" stroke="rgba(57, 18, 106, 1)" stroke-width="1.5"></path><path d="M1555.92 -39.66L1555.92 -39.66" stroke="rgba(57, 18, 106, 1)" stroke-width="1.5"></path><path d="M1555.92 -39.66L1598.88 213.98" stroke="rgba(57, 18, 106, 1)" stroke-width="1.5"></path><path d="M1555.92 -39.66L1294.15 41.54" stroke="rgba(57, 18, 106, 1)" stroke-width="1.5"></path><path d="M1598.88 213.98L1598.88 213.98" stroke="rgba(57, 18, 106, 1)" stroke-width="1.5"></path><path d="M1598.88 213.98L1607.07 399.02" stroke="rgba(57, 18, 106, 1)" stroke-width="1.5"></path><path d="M1598.88 213.98L1392.46 206.38" stroke="rgba(57, 18, 106, 1)" stroke-width="1.5"></path><path d="M1607.07 399.02L1607.07 399.02" stroke="rgba(57, 18, 106, 1)" stroke-width="1.5"></path><path d="M1607.07 399.02L1392.46 206.38" stroke="rgba(57, 18, 106, 1)" stroke-width="1.5"></path><path d="M1607.07 399.02L1310.14 205.04" stroke="rgba(57, 18, 106, 1)" stroke-width="1.5"></path><circle r="5" cx="-39.78" cy="379.86" fill="rgba(57, 18, 106, 1)"></circle><circle r="5" cx="-46.37" cy="549.53" fill="rgba(57, 18, 106, 1)"></circle><circle r="5" cx="-64.5" cy="678.45" fill="rgba(57, 18, 106, 1)"></circle><circle r="5" cx="72.44" cy="340.15" fill="rgba(57, 18, 106, 1)"></circle><circle r="5" cx="64.19" cy="554.25" fill="rgba(57, 18, 106, 1)"></circle><circle r="5" cx="93.89" cy="697.63" fill="rgba(57, 18, 106, 1)"></circle><circle r="5" cx="248.9" cy="378.79" fill="rgba(57, 18, 106, 1)"></circle><circle r="5" cx="255.94" cy="546.09" fill="rgba(57, 18, 106, 1)"></circle><circle r="5" cx="194.55" cy="683.72" fill="rgba(57, 18, 106, 1)"></circle><circle r="5" cx="399.26" cy="377.2" fill="rgba(57, 18, 106, 1)"></circle><circle r="5" cx="338.59" cy="685.38" fill="rgba(57, 18, 106, 1)"></circle><circle r="5" cx="491.61" cy="392.36" fill="rgba(57, 18, 106, 1)"></circle><circle r="5" cx="521.45" cy="557.51" fill="rgba(57, 18, 106, 1)"></circle><circle r="5" cx="537.65" cy="675.06" fill="rgba(57, 18, 106, 1)"></circle><circle r="5" cx="700.69" cy="208.23" fill="rgba(57, 18, 106, 1)"></circle><circle r="5" cx="647.51" cy="390.61" fill="rgba(57, 18, 106, 1)"></circle><circle r="5" cx="689.47" cy="542.25" fill="rgba(57, 18, 106, 1)"></circle><circle r="5" cx="639.37" cy="662.54" fill="rgba(57, 18, 106, 1)"></circle><circle r="5" cx="789.6" cy="214.94" fill="rgba(57, 18, 106, 1)"></circle><circle r="5" cx="831.45" cy="344.16" fill="rgba(57, 18, 106, 1)"></circle><circle r="5" cx="823.29" cy="501.52" fill="rgba(57, 18, 106, 1)"></circle><circle r="5" cx="972.37" cy="-78.97" fill="rgba(57, 18, 106, 1)"></circle><circle r="5" cx="1005.33" cy="95.38" fill="rgba(57, 18, 106, 1)"></circle><circle r="5" cx="940.15" cy="246.01" fill="rgba(57, 18, 106, 1)"></circle><circle r="5" cx="974" cy="353.32" fill="rgba(57, 18, 106, 1)"></circle><circle r="5" cx="987.53" cy="489.16" fill="rgba(57, 18, 106, 1)"></circle><circle r="5" cx="960.34" cy="644.81" fill="rgba(57, 18, 106, 1)"></circle><circle r="5" cx="1140.14" cy="97.32" fill="rgba(57, 18, 106, 1)"></circle><circle r="5" cx="1128.16" cy="237.27" fill="rgba(57, 18, 106, 1)"></circle><circle r="5" cx="1109.3" cy="402.99" fill="rgba(57, 18, 106, 1)"></circle><circle r="5" cx="1139.02" cy="527.49" fill="rgba(57, 18, 106, 1)"></circle><circle r="5" cx="1090.59" cy="665.11" fill="rgba(57, 18, 106, 1)"></circle><circle r="5" cx="1251.94" cy="-41.64" fill="rgba(57, 18, 106, 1)"></circle><circle r="5" cx="1294.15" cy="41.54" fill="rgba(57, 18, 106, 1)"></circle><circle r="5" cx="1310.14" cy="205.04" fill="rgba(57, 18, 106, 1)"></circle><circle r="5" cx="1244.88" cy="390.77" fill="rgba(57, 18, 106, 1)"></circle><circle r="5" cx="1282.35" cy="705.26" fill="rgba(57, 18, 106, 1)"></circle><circle r="5" cx="1438.8" cy="-102.53" fill="rgba(57, 18, 106, 1)"></circle><circle r="5" cx="1433.03" cy="70.61" fill="rgba(57, 18, 106, 1)"></circle><circle r="5" cx="1392.46" cy="206.38" fill="rgba(57, 18, 106, 1)"></circle><circle r="5" cx="1404.41" cy="501.04" fill="rgba(57, 18, 106, 1)"></circle><circle r="5" cx="1456.75" cy="644.41" fill="rgba(57, 18, 106, 1)"></circle><circle r="5" cx="1555.92" cy="-39.66" fill="rgba(57, 18, 106, 1)"></circle><circle r="5" cx="1598.88" cy="213.98" fill="rgba(57, 18, 106, 1)"></circle><circle r="5" cx="1607.07" cy="399.02" fill="rgba(57, 18, 106, 1)"></circle><path d="M647.26 511.61L647.26 511.61" stroke="hsl(281.9, 86.9%, 50.5%)" stroke-width="1.5"></path><path d="M647.26 511.61L508.87 529.34" stroke="hsl(281.9, 86.9%, 50.5%)" stroke-width="1.5"></path><path d="M647.26 511.61L544.25 640.55" stroke="hsl(281.9, 86.9%, 50.5%)" stroke-width="1.5"></path><path d="M647.26 511.61L830.15 495.67" stroke="hsl(281.9, 86.9%, 50.5%)" stroke-width="1.5"></path><path d="M647.26 511.61L703.09 703.93" stroke="hsl(281.9, 86.9%, 50.5%)" stroke-width="1.5"></path><path d="M830.15 495.67L830.15 495.67" stroke="hsl(281.9, 86.9%, 50.5%)" stroke-width="1.5"></path><path d="M830.15 495.67L966.37 499.9" stroke="hsl(281.9, 86.9%, 50.5%)" stroke-width="1.5"></path><path d="M830.15 495.67L788.58 663.62" stroke="hsl(281.9, 86.9%, 50.5%)" stroke-width="1.5"></path><path d="M966.37 499.9L966.37 499.9" stroke="hsl(281.9, 86.9%, 50.5%)" stroke-width="1.5"></path><path d="M966.37 499.9L1089.58 547.56" stroke="hsl(281.9, 86.9%, 50.5%)" stroke-width="1.5"></path><path d="M966.37 499.9L947.78 344.83" stroke="hsl(281.9, 86.9%, 50.5%)" stroke-width="1.5"></path><path d="M1158.01 670.42L1158.01 670.42" stroke="hsl(281.9, 86.9%, 50.5%)" stroke-width="1.5"></path><path d="M1158.01 670.42L1089.58 547.56" stroke="hsl(281.9, 86.9%, 50.5%)" stroke-width="1.5"></path><path d="M1158.01 670.42L1003.4 655.99" stroke="hsl(281.9, 86.9%, 50.5%)" stroke-width="1.5"></path><path d="M1158.01 670.42L1311.36 700.15" stroke="hsl(281.9, 86.9%, 50.5%)" stroke-width="1.5"></path><path d="M1158.01 670.42L1281.88 495.29" stroke="hsl(281.9, 86.9%, 50.5%)" stroke-width="1.5"></path><path d="M1254.65 -107.96L1254.65 -107.96" stroke="hsl(281.9, 86.9%, 50.5%)" stroke-width="1.5"></path><path d="M1254.65 -107.96L1421.89 -64.6" stroke="hsl(281.9, 86.9%, 50.5%)" stroke-width="1.5"></path><path d="M1254.65 -107.96L1443.1 88.87" stroke="hsl(281.9, 86.9%, 50.5%)" stroke-width="1.5"></path><path d="M1254.65 -107.96L1555.19 -56.86" stroke="hsl(281.9, 86.9%, 50.5%)" stroke-width="1.5"></path><path d="M1254.65 -107.96L1150.87 223.28" stroke="hsl(281.9, 86.9%, 50.5%)" stroke-width="1.5"></path><path d="M1421.89 -64.6L1421.89 -64.6" stroke="hsl(281.9, 86.9%, 50.5%)" stroke-width="1.5"></path><path d="M1421.89 -64.6L1555.19 -56.86" stroke="hsl(281.9, 86.9%, 50.5%)" stroke-width="1.5"></path><path d="M1421.89 -64.6L1443.1 88.87" stroke="hsl(281.9, 86.9%, 50.5%)" stroke-width="1.5"></path><path d="M1540.96 260.29L1540.96 260.29" stroke="hsl(281.9, 86.9%, 50.5%)" stroke-width="1.5"></path><path d="M1540.96 260.29L1453.3 237.62" stroke="hsl(281.9, 86.9%, 50.5%)" stroke-width="1.5"></path><path d="M1540.96 260.29L1540.48 387.66" stroke="hsl(281.9, 86.9%, 50.5%)" stroke-width="1.5"></path><path d="M1540.96 260.29L1421.55 397.33" stroke="hsl(281.9, 86.9%, 50.5%)" stroke-width="1.5"></path><path d="M1540.96 260.29L1563.73 72.42" stroke="hsl(281.9, 86.9%, 50.5%)" stroke-width="1.5"></path><path d="M1540.96 260.29L1443.1 88.87" stroke="hsl(281.9, 86.9%, 50.5%)" stroke-width="1.5"></path><path d="M1540.96 260.29L1294.74 356.21" stroke="hsl(281.9, 86.9%, 50.5%)" stroke-width="1.5"></path><path d="M-111.95 548.32L-111.95 548.32" stroke="hsl(281.9, 86.9%, 50.5%)" stroke-width="1.5"></path><path d="M-111.95 548.32L-101.07 691.59" stroke="hsl(281.9, 86.9%, 50.5%)" stroke-width="1.5"></path><path d="M-111.95 548.32L84.92 531.98" stroke="hsl(281.9, 86.9%, 50.5%)" stroke-width="1.5"></path><path d="M-101.07 691.59L-101.07 691.59" stroke="hsl(281.9, 86.9%, 50.5%)" stroke-width="1.5"></path><path d="M-101.07 691.59L100.89 656.77" stroke="hsl(281.9, 86.9%, 50.5%)" stroke-width="1.5"></path><path d="M-101.07 691.59L84.92 531.98" stroke="hsl(281.9, 86.9%, 50.5%)" stroke-width="1.5"></path><path d="M84.92 531.98L84.92 531.98" stroke="hsl(281.9, 86.9%, 50.5%)" stroke-width="1.5"></path><path d="M84.92 531.98L204.5 532.2" stroke="hsl(281.9, 86.9%, 50.5%)" stroke-width="1.5"></path><path d="M100.89 656.77L100.89 656.77" stroke="hsl(281.9, 86.9%, 50.5%)" stroke-width="1.5"></path><path d="M100.89 656.77L84.92 531.98" stroke="hsl(281.9, 86.9%, 50.5%)" stroke-width="1.5"></path><path d="M100.89 656.77L228.36 641.76" stroke="hsl(281.9, 86.9%, 50.5%)" stroke-width="1.5"></path><path d="M100.89 656.77L204.5 532.2" stroke="hsl(281.9, 86.9%, 50.5%)" stroke-width="1.5"></path><path d="M100.89 656.77L-111.95 548.32" stroke="hsl(281.9, 86.9%, 50.5%)" stroke-width="1.5"></path><path d="M100.89 656.77L368.5 703.99" stroke="hsl(281.9, 86.9%, 50.5%)" stroke-width="1.5"></path><path d="M204.5 532.2L204.5 532.2" stroke="hsl(281.9, 86.9%, 50.5%)" stroke-width="1.5"></path><path d="M204.5 532.2L228.36 641.76" stroke="hsl(281.9, 86.9%, 50.5%)" stroke-width="1.5"></path><path d="M204.5 532.2L356.05 515.73" stroke="hsl(281.9, 86.9%, 50.5%)" stroke-width="1.5"></path><path d="M228.36 641.76L228.36 641.76" stroke="hsl(281.9, 86.9%, 50.5%)" stroke-width="1.5"></path><path d="M228.36 641.76L368.5 703.99" stroke="hsl(281.9, 86.9%, 50.5%)" stroke-width="1.5"></path><path d="M228.36 641.76L356.05 515.73" stroke="hsl(281.9, 86.9%, 50.5%)" stroke-width="1.5"></path><path d="M228.36 641.76L84.92 531.98" stroke="hsl(281.9, 86.9%, 50.5%)" stroke-width="1.5"></path><path d="M228.36 641.76L508.87 529.34" stroke="hsl(281.9, 86.9%, 50.5%)" stroke-width="1.5"></path><path d="M356.05 515.73L356.05 515.73" stroke="hsl(281.9, 86.9%, 50.5%)" stroke-width="1.5"></path><path d="M356.05 515.73L508.87 529.34" stroke="hsl(281.9, 86.9%, 50.5%)" stroke-width="1.5"></path><path d="M368.5 703.99L368.5 703.99" stroke="hsl(281.9, 86.9%, 50.5%)" stroke-width="1.5"></path><path d="M368.5 703.99L544.25 640.55" stroke="hsl(281.9, 86.9%, 50.5%)" stroke-width="1.5"></path><path d="M368.5 703.99L356.05 515.73" stroke="hsl(281.9, 86.9%, 50.5%)" stroke-width="1.5"></path><path d="M368.5 703.99L508.87 529.34" stroke="hsl(281.9, 86.9%, 50.5%)" stroke-width="1.5"></path><path d="M508.87 529.34L508.87 529.34" stroke="hsl(281.9, 86.9%, 50.5%)" stroke-width="1.5"></path><path d="M508.87 529.34L544.25 640.55" stroke="hsl(281.9, 86.9%, 50.5%)" stroke-width="1.5"></path><path d="M508.87 529.34L703.09 703.93" stroke="hsl(281.9, 86.9%, 50.5%)" stroke-width="1.5"></path><path d="M544.25 640.55L544.25 640.55" stroke="hsl(281.9, 86.9%, 50.5%)" stroke-width="1.5"></path><path d="M703.09 703.93L703.09 703.93" stroke="hsl(281.9, 86.9%, 50.5%)" stroke-width="1.5"></path><path d="M703.09 703.93L788.58 663.62" stroke="hsl(281.9, 86.9%, 50.5%)" stroke-width="1.5"></path><path d="M703.09 703.93L544.25 640.55" stroke="hsl(281.9, 86.9%, 50.5%)" stroke-width="1.5"></path><path d="M788.58 663.62L788.58 663.62" stroke="hsl(281.9, 86.9%, 50.5%)" stroke-width="1.5"></path><path d="M788.58 663.62L647.26 511.61" stroke="hsl(281.9, 86.9%, 50.5%)" stroke-width="1.5"></path><path d="M947.78 344.83L947.78 344.83" stroke="hsl(281.9, 86.9%, 50.5%)" stroke-width="1.5"></path><path d="M947.78 344.83L1106.02 410.82" stroke="hsl(281.9, 86.9%, 50.5%)" stroke-width="1.5"></path><path d="M947.78 344.83L830.15 495.67" stroke="hsl(281.9, 86.9%, 50.5%)" stroke-width="1.5"></path><path d="M1003.4 655.99L1003.4 655.99" stroke="hsl(281.9, 86.9%, 50.5%)" stroke-width="1.5"></path><path d="M1003.4 655.99L1089.58 547.56" stroke="hsl(281.9, 86.9%, 50.5%)" stroke-width="1.5"></path><path d="M1003.4 655.99L966.37 499.9" stroke="hsl(281.9, 86.9%, 50.5%)" stroke-width="1.5"></path><path d="M1150.87 223.28L1150.87 223.28" stroke="hsl(281.9, 86.9%, 50.5%)" stroke-width="1.5"></path><path d="M1150.87 223.28L1248.79 255.61" stroke="hsl(281.9, 86.9%, 50.5%)" stroke-width="1.5"></path><path d="M1150.87 223.28L1106.02 410.82" stroke="hsl(281.9, 86.9%, 50.5%)" stroke-width="1.5"></path><path d="M1150.87 223.28L1294.74 356.21" stroke="hsl(281.9, 86.9%, 50.5%)" stroke-width="1.5"></path><path d="M1150.87 223.28L947.78 344.83" stroke="hsl(281.9, 86.9%, 50.5%)" stroke-width="1.5"></path><path d="M1106.02 410.82L1106.02 410.82" stroke="hsl(281.9, 86.9%, 50.5%)" stroke-width="1.5"></path><path d="M1106.02 410.82L1089.58 547.56" stroke="hsl(281.9, 86.9%, 50.5%)" stroke-width="1.5"></path><path d="M1106.02 410.82L966.37 499.9" stroke="hsl(281.9, 86.9%, 50.5%)" stroke-width="1.5"></path><path d="M1089.58 547.56L1089.58 547.56" stroke="hsl(281.9, 86.9%, 50.5%)" stroke-width="1.5"></path><path d="M1089.58 547.56L1281.88 495.29" stroke="hsl(281.9, 86.9%, 50.5%)" stroke-width="1.5"></path><path d="M1089.58 547.56L947.78 344.83" stroke="hsl(281.9, 86.9%, 50.5%)" stroke-width="1.5"></path><path d="M1248.79 255.61L1248.79 255.61" stroke="hsl(281.9, 86.9%, 50.5%)" stroke-width="1.5"></path><path d="M1248.79 255.61L1294.74 356.21" stroke="hsl(281.9, 86.9%, 50.5%)" stroke-width="1.5"></path><path d="M1248.79 255.61L1453.3 237.62" stroke="hsl(281.9, 86.9%, 50.5%)" stroke-width="1.5"></path><path d="M1248.79 255.61L1106.02 410.82" stroke="hsl(281.9, 86.9%, 50.5%)" stroke-width="1.5"></path><path d="M1248.79 255.61L1421.55 397.33" stroke="hsl(281.9, 86.9%, 50.5%)" stroke-width="1.5"></path><path d="M1248.79 255.61L1281.88 495.29" stroke="hsl(281.9, 86.9%, 50.5%)" stroke-width="1.5"></path><path d="M1294.74 356.21L1294.74 356.21" stroke="hsl(281.9, 86.9%, 50.5%)" stroke-width="1.5"></path><path d="M1294.74 356.21L1421.55 397.33" stroke="hsl(281.9, 86.9%, 50.5%)" stroke-width="1.5"></path><path d="M1294.74 356.21L1281.88 495.29" stroke="hsl(281.9, 86.9%, 50.5%)" stroke-width="1.5"></path><path d="M1294.74 356.21L1399.53 508.32" stroke="hsl(281.9, 86.9%, 50.5%)" stroke-width="1.5"></path><path d="M1281.88 495.29L1281.88 495.29" stroke="hsl(281.9, 86.9%, 50.5%)" stroke-width="1.5"></path><path d="M1281.88 495.29L1399.53 508.32" stroke="hsl(281.9, 86.9%, 50.5%)" stroke-width="1.5"></path><path d="M1281.88 495.29L1421.55 397.33" stroke="hsl(281.9, 86.9%, 50.5%)" stroke-width="1.5"></path><path d="M1281.88 495.29L1106.02 410.82" stroke="hsl(281.9, 86.9%, 50.5%)" stroke-width="1.5"></path><path d="M1281.88 495.29L1311.36 700.15" stroke="hsl(281.9, 86.9%, 50.5%)" stroke-width="1.5"></path><path d="M1311.36 700.15L1311.36 700.15" stroke="hsl(281.9, 86.9%, 50.5%)" stroke-width="1.5"></path><path d="M1311.36 700.15L1401.81 703.11" stroke="hsl(281.9, 86.9%, 50.5%)" stroke-width="1.5"></path><path d="M1443.1 88.87L1443.1 88.87" stroke="hsl(281.9, 86.9%, 50.5%)" stroke-width="1.5"></path><path d="M1443.1 88.87L1563.73 72.42" stroke="hsl(281.9, 86.9%, 50.5%)" stroke-width="1.5"></path><path d="M1443.1 88.87L1453.3 237.62" stroke="hsl(281.9, 86.9%, 50.5%)" stroke-width="1.5"></path><path d="M1443.1 88.87L1555.19 -56.86" stroke="hsl(281.9, 86.9%, 50.5%)" stroke-width="1.5"></path><path d="M1453.3 237.62L1453.3 237.62" stroke="hsl(281.9, 86.9%, 50.5%)" stroke-width="1.5"></path><path d="M1453.3 237.62L1421.55 397.33" stroke="hsl(281.9, 86.9%, 50.5%)" stroke-width="1.5"></path><path d="M1453.3 237.62L1540.48 387.66" stroke="hsl(281.9, 86.9%, 50.5%)" stroke-width="1.5"></path><path d="M1453.3 237.62L1294.74 356.21" stroke="hsl(281.9, 86.9%, 50.5%)" stroke-width="1.5"></path><path d="M1421.55 397.33L1421.55 397.33" stroke="hsl(281.9, 86.9%, 50.5%)" stroke-width="1.5"></path><path d="M1421.55 397.33L1399.53 508.32" stroke="hsl(281.9, 86.9%, 50.5%)" stroke-width="1.5"></path><path d="M1421.55 397.33L1540.48 387.66" stroke="hsl(281.9, 86.9%, 50.5%)" stroke-width="1.5"></path><path d="M1399.53 508.32L1399.53 508.32" stroke="hsl(281.9, 86.9%, 50.5%)" stroke-width="1.5"></path><path d="M1399.53 508.32L1540.48 387.66" stroke="hsl(281.9, 86.9%, 50.5%)" stroke-width="1.5"></path><path d="M1399.53 508.32L1401.81 703.11" stroke="hsl(281.9, 86.9%, 50.5%)" stroke-width="1.5"></path><path d="M1399.53 508.32L1311.36 700.15" stroke="hsl(281.9, 86.9%, 50.5%)" stroke-width="1.5"></path><path d="M1401.81 703.11L1401.81 703.11" stroke="hsl(281.9, 86.9%, 50.5%)" stroke-width="1.5"></path><path d="M1401.81 703.11L1606.77 687.55" stroke="hsl(281.9, 86.9%, 50.5%)" stroke-width="1.5"></path><path d="M1401.81 703.11L1281.88 495.29" stroke="hsl(281.9, 86.9%, 50.5%)" stroke-width="1.5"></path><path d="M1555.19 -56.86L1555.19 -56.86" stroke="hsl(281.9, 86.9%, 50.5%)" stroke-width="1.5"></path><path d="M1555.19 -56.86L1563.73 72.42" stroke="hsl(281.9, 86.9%, 50.5%)" stroke-width="1.5"></path><path d="M1555.19 -56.86L1453.3 237.62" stroke="hsl(281.9, 86.9%, 50.5%)" stroke-width="1.5"></path><path d="M1555.19 -56.86L1540.96 260.29" stroke="hsl(281.9, 86.9%, 50.5%)" stroke-width="1.5"></path><path d="M1563.73 72.42L1563.73 72.42" stroke="hsl(281.9, 86.9%, 50.5%)" stroke-width="1.5"></path><path d="M1563.73 72.42L1421.89 -64.6" stroke="hsl(281.9, 86.9%, 50.5%)" stroke-width="1.5"></path><path d="M1540.48 387.66L1540.48 387.66" stroke="hsl(281.9, 86.9%, 50.5%)" stroke-width="1.5"></path><path d="M1606.77 687.55L1606.77 687.55" stroke="hsl(281.9, 86.9%, 50.5%)" stroke-width="1.5"></path><path d="M1606.77 687.55L1399.53 508.32" stroke="hsl(281.9, 86.9%, 50.5%)" stroke-width="1.5"></path><path d="M1606.77 687.55L1311.36 700.15" stroke="hsl(281.9, 86.9%, 50.5%)" stroke-width="1.5"></path><circle r="25" cx="647.26" cy="511.61" fill="url(#SvgjsRadialGradient1007)"></circle><circle r="25" cx="830.15" cy="495.67" fill="url(#SvgjsRadialGradient1007)"></circle><circle r="25" cx="966.37" cy="499.9" fill="url(#SvgjsRadialGradient1007)"></circle><circle r="25" cx="1158.01" cy="670.42" fill="url(#SvgjsRadialGradient1007)"></circle><circle r="25" cx="1254.65" cy="-107.96" fill="url(#SvgjsRadialGradient1007)"></circle><circle r="25" cx="1421.89" cy="-64.6" fill="url(#SvgjsRadialGradient1007)"></circle><circle r="25" cx="1540.96" cy="260.29" fill="url(#SvgjsRadialGradient1007)"></circle><circle r="5" cx="-111.95" cy="548.32" fill="#c286dc"></circle><circle r="5" cx="-101.07" cy="691.59" fill="#c286dc"></circle><circle r="5" cx="84.92" cy="531.98" fill="#c286dc"></circle><circle r="5" cx="100.89" cy="656.77" fill="#c286dc"></circle><circle r="5" cx="204.5" cy="532.2" fill="#c286dc"></circle><circle r="5" cx="228.36" cy="641.76" fill="#c286dc"></circle><circle r="5" cx="356.05" cy="515.73" fill="#c286dc"></circle><circle r="5" cx="368.5" cy="703.99" fill="#c286dc"></circle><circle r="5" cx="508.87" cy="529.34" fill="#c286dc"></circle><circle r="5" cx="544.25" cy="640.55" fill="#c286dc"></circle><circle r="5" cx="703.09" cy="703.93" fill="#c286dc"></circle><circle r="5" cx="788.58" cy="663.62" fill="#c286dc"></circle><circle r="5" cx="947.78" cy="344.83" fill="#c286dc"></circle><circle r="5" cx="1003.4" cy="655.99" fill="#c286dc"></circle><circle r="5" cx="1150.87" cy="223.28" fill="#c286dc"></circle><circle r="5" cx="1106.02" cy="410.82" fill="#c286dc"></circle><circle r="5" cx="1089.58" cy="547.56" fill="#c286dc"></circle><circle r="5" cx="1248.79" cy="255.61" fill="#c286dc"></circle><circle r="5" cx="1294.74" cy="356.21" fill="#c286dc"></circle><circle r="5" cx="1281.88" cy="495.29" fill="#c286dc"></circle><circle r="5" cx="1311.36" cy="700.15" fill="#c286dc"></circle><circle r="5" cx="1443.1" cy="88.87" fill="#c286dc"></circle><circle r="5" cx="1453.3" cy="237.62" fill="#c286dc"></circle><circle r="5" cx="1421.55" cy="397.33" fill="#c286dc"></circle><circle r="5" cx="1399.53" cy="508.32" fill="#c286dc"></circle><circle r="5" cx="1401.81" cy="703.11" fill="#c286dc"></circle><circle r="5" cx="1555.19" cy="-56.86" fill="#c286dc"></circle><circle r="5" cx="1563.73" cy="72.42" fill="#c286dc"></circle><circle r="5" cx="1540.48" cy="387.66" fill="#c286dc"></circle><circle r="5" cx="1606.77" cy="687.55" fill="#c286dc"></circle></g><defs><mask id="SvgjsMask1006"><rect width="1440" height="560" fill="#ffffff"></rect></mask><radialGradient id="SvgjsRadialGradient1007"><stop stop-color="#ffffff" offset="0.1"></stop><stop stop-color="rgba(133, 13, 185, 1)" offset="0.2"></stop><stop stop-color="rgba(133, 13, 185, 0)" offset="1"></stop></radialGradient></defs></svg>